HIERARCHY
ROOT Hips
{
	OFFSET 0.855459 87.304039 2.097940
	CHANNELS 6 Xposition Yposition Zposition Zrotation Yrotation Xrotation 
	JOINT Spine
	{
		OFFSET 0.000000 8.814246 -2.080107
		CHANNELS 3 Zrotation Yrotation Xrotation
		JOINT Spine1
		{
			OFFSET 0.000000 8.844141 0.000000
			CHANNELS 3 Zrotation Yrotation Xrotation
			JOINT Spine2
			{
				OFFSET -0.000000 11.682268 0.000000
				CHANNELS 3 Zrotation Yrotation Xrotation
				JOINT Spine3
				{
					OFFSET 0.000000 11.746700 0.000000
					CHANNELS 3 Zrotation Yrotation Xrotation
					JOINT Neck
					{
						OFFSET -0.000000 17.658264 -0.000000
						CHANNELS 3 Zrotation Yrotation Xrotation
						JOINT Neck1
						{
							OFFSET 0.000000 5.101515 0.000000
							CHANNELS 3 Zrotation Yrotation Xrotation
							JOINT Head
							{
								OFFSET 0.000000 5.101515 -0.000000
								CHANNELS 3 Zrotation Yrotation Xrotation
								JOINT HeadEnd
								{
									OFFSET 0.000000 11.655085 0.000000
									CHANNELS 3 Zrotation Yrotation Xrotation
									End Site
									{
										OFFSET 0.000000 0.000000 0.000000
									}
								}
							}
						}
					}
					JOINT RightShoulder
					{
						OFFSET -2.625389 11.175210 -0.000000
						CHANNELS 3 Zrotation Yrotation Xrotation
						JOINT RightArm
						{
							OFFSET -0.000000 10.434715 0.000000
							CHANNELS 3 Zrotation Yrotation Xrotation
							JOINT RightForeArm
							{
								OFFSET -0.000000 29.628420 -0.000000
								CHANNELS 3 Zrotation Yrotation Xrotation
								JOINT RightHand
								{
									OFFSET -0.000000 22.857611 0.000000
									CHANNELS 3 Zrotation Yrotation Xrotation
									JOINT RightHandThumb1
									{
										OFFSET -2.867323 3.959563 2.944291
										CHANNELS 3 Zrotation Yrotation Xrotation
										JOINT RightHandThumb2
										{
											OFFSET -0.000000 3.350399 0.000000
											CHANNELS 3 Zrotation Yrotation Xrotation
											JOINT RightHandThumb3
											{
												OFFSET 0.000000 3.756509 0.000000
												CHANNELS 3 Zrotation Yrotation Xrotation
												JOINT RightHandThumb4
												{
													OFFSET 0.000000 3.147345 0.000000
													CHANNELS 3 Zrotation Yrotation Xrotation
													End Site
													{
														OFFSET 0.000000 0.000000 0.000000
													}
												}
											}
										}
									}
									JOINT RightHandIndex1
									{
										OFFSET -0.086752 10.030893 2.345280
										CHANNELS 3 Zrotation Yrotation Xrotation
										JOINT RightHandIndex2
										{
											OFFSET -0.000000 4.061090 -0.000000
											CHANNELS 3 Zrotation Yrotation Xrotation
											JOINT RightHandIndex3
											{
												OFFSET 0.000000 3.248873 0.000000
												CHANNELS 3 Zrotation Yrotation Xrotation
												JOINT RightHandIndex4
												{
													OFFSET -0.000000 2.639709 -0.000000
													CHANNELS 3 Zrotation Yrotation Xrotation
													End Site
													{
														OFFSET 0.000000 0.000000 0.000000
													}
												}
											}
										}
									}
									JOINT RightHandMiddle1
									{
										OFFSET 0.104102 9.502952 0.006768
										CHANNELS 3 Zrotation Yrotation Xrotation
										JOINT RightHandMiddle2
										{
											OFFSET -0.000000 4.568727 0.000000
											CHANNELS 3 Zrotation Yrotation Xrotation
											JOINT RightHandMiddle3
											{
												OFFSET 0.000000 3.654981 0.000000
												CHANNELS 3 Zrotation Yrotation Xrotation
												JOINT RightHandMiddle4
												{
													OFFSET 0.000000 2.741236 0.000000
													CHANNELS 3 Zrotation Yrotation Xrotation
													End Site
													{
														OFFSET 0.000000 0.000000 0.000000
													}
												}
											}
										}
									}
									JOINT RightHandRing1
									{
										OFFSET 0.086752 8.921708 -2.267442
										CHANNELS 3 Zrotation Yrotation Xrotation
										JOINT RightHandRing2
										{
											OFFSET 0.000000 4.061090 0.000000
											CHANNELS 3 Zrotation Yrotation Xrotation
											JOINT RightHandRing3
											{
												OFFSET -0.000000 3.654981 -0.000000
												CHANNELS 3 Zrotation Yrotation Xrotation
												JOINT RightHandRing4
												{
													OFFSET -0.000000 2.741236 0.000000
													CHANNELS 3 Zrotation Yrotation Xrotation
													End Site
													{
														OFFSET 0.000000 0.000000 0.000000
													}
												}
											}
										}
									}
									JOINT RightHandPinky1
									{
										OFFSET -0.173504 7.976997 -4.467199
										CHANNELS 3 Zrotation Yrotation Xrotation
										JOINT RightHandPinky2
										{
											OFFSET 0.000000 3.350399 0.000000
											CHANNELS 3 Zrotation Yrotation Xrotation
											JOINT RightHandPinky3
											{
												OFFSET -0.000000 2.842763 -0.000000
												CHANNELS 3 Zrotation Yrotation Xrotation
												JOINT RightHandPinky4
												{
													OFFSET -0.000000 2.639709 -0.000000
													CHANNELS 3 Zrotation Yrotation Xrotation
													End Site
													{
														OFFSET 0.000000 0.000000 0.000000
													}
												}
											}
										}
									}
									JOINT RightForeArmEnd
									{
										OFFSET 0.000000 0.000000 0.000000
										CHANNELS 3 Zrotation Yrotation Xrotation
										End Site
										{
											OFFSET 0.000000 0.000000 0.000000
										}
									}
								}
								JOINT RightArmEnd
								{
									OFFSET 0.000000 0.000000 0.000000
									CHANNELS 3 Zrotation Yrotation Xrotation
									End Site
									{
										OFFSET 0.000000 0.000000 0.000000
									}
								}
							}
						}
					}
					JOINT LeftShoulder
					{
						OFFSET 2.625389 11.175210 0.000000
						CHANNELS 3 Zrotation Yrotation Xrotation
						JOINT LeftArm
						{
							OFFSET 0.000000 10.813635 0.000000
							CHANNELS 3 Zrotation Yrotation Xrotation
							JOINT LeftForeArm
							{
								OFFSET 0.000000 28.724781 -0.000000
								CHANNELS 3 Zrotation Yrotation Xrotation
								JOINT LeftHand
								{
									OFFSET 0.644384 25.716167 -0.328871
									CHANNELS 3 Zrotation Yrotation Xrotation
									JOINT LeftHandThumb1
									{
										OFFSET 2.867323 3.959563 2.944291
										CHANNELS 3 Zrotation Yrotation Xrotation
										JOINT LeftHandThumb2
										{
											OFFSET -0.000000 3.350399 0.000000
											CHANNELS 3 Zrotation Yrotation Xrotation
											JOINT LeftHandThumb3
											{
												OFFSET 0.000000 3.756509 -0.000000
												CHANNELS 3 Zrotation Yrotation Xrotation
												JOINT LeftHandThumb4
												{
													OFFSET -0.000000 3.100000 0.000000
													CHANNELS 3 Zrotation Yrotation Xrotation
													End Site
													{
														OFFSET 0.000000 0.000000 0.000000
													}
												}
											}
										}
									}
									JOINT LeftHandIndex1
									{
										OFFSET 0.086752 10.030893 2.345280
										CHANNELS 3 Zrotation Yrotation Xrotation
										JOINT LeftHandIndex2
										{
											OFFSET -0.000000 4.061090 0.000000
											CHANNELS 3 Zrotation Yrotation Xrotation
											JOINT LeftHandIndex3
											{
												OFFSET 0.000000 3.248873 -0.000000
												CHANNELS 3 Zrotation Yrotation Xrotation
												JOINT LeftHandIndex4
												{
													OFFSET -0.000000 2.639709 0.000000
													CHANNELS 3 Zrotation Yrotation Xrotation
													End Site
													{
														OFFSET 0.000000 0.000000 0.000000
													}
												}
											}
										}
									}
									JOINT LeftHandMiddle1
									{
										OFFSET -0.104102 9.502952 0.006768
										CHANNELS 3 Zrotation Yrotation Xrotation
										JOINT LeftHandMiddle2
										{
											OFFSET -0.000000 4.568727 0.000000
											CHANNELS 3 Zrotation Yrotation Xrotation
											JOINT LeftHandMiddle3
											{
												OFFSET 0.000000 3.654981 -0.000000
												CHANNELS 3 Zrotation Yrotation Xrotation
												JOINT LeftHandMiddle4
												{
													OFFSET -0.000000 2.741236 0.000000
													CHANNELS 3 Zrotation Yrotation Xrotation
													End Site
													{
														OFFSET 0.000000 0.000000 0.000000
													}
												}
											}
										}
									}
									JOINT LeftHandRing1
									{
										OFFSET -0.086752 8.921708 -2.267442
										CHANNELS 3 Zrotation Yrotation Xrotation
										JOINT LeftHandRing2
										{
											OFFSET -0.000000 4.061090 0.000000
											CHANNELS 3 Zrotation Yrotation Xrotation
											JOINT LeftHandRing3
											{
												OFFSET -0.000000 3.654981 0.000000
												CHANNELS 3 Zrotation Yrotation Xrotation
												JOINT LeftHandRing4
												{
													OFFSET 0.000000 2.741236 -0.000000
													CHANNELS 3 Zrotation Yrotation Xrotation
													End Site
													{
														OFFSET 0.000000 0.000000 0.000000
													}
												}
											}
										}
									}
									JOINT LeftHandPinky1
									{
										OFFSET 0.173504 7.976997 -4.467199
										CHANNELS 3 Zrotation Yrotation Xrotation
										JOINT LeftHandPinky2
										{
											OFFSET 0.000000 3.350399 -0.000000
											CHANNELS 3 Zrotation Yrotation Xrotation
											JOINT LeftHandPinky3
											{
												OFFSET 0.000000 2.842763 -0.000000
												CHANNELS 3 Zrotation Yrotation Xrotation
												JOINT LeftHandPinky4
												{
													OFFSET -0.000000 2.639709 0.000000
													CHANNELS 3 Zrotation Yrotation Xrotation
													End Site
													{
														OFFSET 0.000000 0.000000 0.000000
													}
												}
											}
										}
									}
									JOINT LeftForeArmEnd
									{
										OFFSET 0.000000 0.000000 0.000000
										CHANNELS 3 Zrotation Yrotation Xrotation
										End Site
										{
											OFFSET 0.000000 0.000000 0.000000
										}
									}
								}
								JOINT LeftArmEnd
								{
									OFFSET 0.000000 0.000000 0.000000
									CHANNELS 3 Zrotation Yrotation Xrotation
									End Site
									{
										OFFSET 0.000000 0.000000 0.000000
									}
								}
							}
						}
					}
				}
			}
		}
	}
	JOINT RightUpLeg
	{
		OFFSET -11.289943 -0.000000 0.000000
		CHANNELS 3 Zrotation Yrotation Xrotation
		JOINT RightLeg
		{
			OFFSET 0.000000 -38.200325 -0.000000
			CHANNELS 3 Zrotation Yrotation Xrotation
			JOINT RightFoot
			{
				OFFSET -0.000000 -39.900856 -0.000000
				CHANNELS 3 Zrotation Yrotation Xrotation
				JOINT RightToeBase
				{
					OFFSET -0.000000 -0.000000 15.261641
					CHANNELS 3 Zrotation Yrotation Xrotation
					JOINT RightToeBaseEnd
					{
						OFFSET 0.000000 0.000000 7.370709
						CHANNELS 3 Zrotation Yrotation Xrotation
						End Site
						{
							OFFSET 0.000000 0.000000 0.000000
						}
					}
				}
				JOINT RightLegEnd
				{
					OFFSET 0.000000 0.000000 0.000000
					CHANNELS 3 Zrotation Yrotation Xrotation
					End Site
					{
						OFFSET 0.000000 0.000000 0.000000
					}
				}
			}
			JOINT RightUpLegEnd
			{
				OFFSET 0.000000 0.000000 0.000000
				CHANNELS 3 Zrotation Yrotation Xrotation
				End Site
				{
					OFFSET 0.000000 0.000000 0.000000
				}
			}
		}
	}
	JOINT LeftUpLeg
	{
		OFFSET 11.315661 -0.000000 0.000000
		CHANNELS 3 Zrotation Yrotation Xrotation
		JOINT LeftLeg
		{
			OFFSET 0.000000 -38.200325 -0.000000
			CHANNELS 3 Zrotation Yrotation Xrotation
			JOINT LeftFoot
			{
				OFFSET 0.000000 -39.900856 -0.000000
				CHANNELS 3 Zrotation Yrotation Xrotation
				JOINT LeftToeBase
				{
					OFFSET 0.000000 -0.000000 15.261641
					CHANNELS 3 Zrotation Yrotation Xrotation
					JOINT LeftToeBaseEnd
					{
						OFFSET 0.000000 -0.000000 7.539996
						CHANNELS 3 Zrotation Yrotation Xrotation
						End Site
						{
							OFFSET 0.000000 0.000000 0.000000
						}
					}
				}
				JOINT LeftLegEnd
				{
					OFFSET 0.000000 0.000000 0.000000
					CHANNELS 3 Zrotation Yrotation Xrotation
					End Site
					{
						OFFSET 0.000000 0.000000 0.000000
					}
				}
			}
			JOINT LeftUpLegEnd
			{
				OFFSET 0.000000 0.000000 0.000000
				CHANNELS 3 Zrotation Yrotation Xrotation
				End Site
				{
					OFFSET 0.000000 0.000000 0.000000
				}
			}
		}
	}
}
MOTION
Frames: 5
Frame Time: 0.016667
0.855459 87.304039 2.097940 -1.351698 -0.115627 -4.888391 2.294271 -0.954890 4.322198 3.312815 -1.056430 4.611320 0.461044 -0.837826 5.866488 -0.334737 -0.182731 1.059856 4.682567 8.441760 10.528691 -3.659472 7.834510 -7.056406 -1.878811 3.469421 -18.062349 0.000000 0.000000 0.000000 88.597542 0.180154 7.268758 71.543823 -59.641781 -6.143548 0.261739 19.747787 42.512470 5.464628 28.876236 -8.032012 9.142714 -1.696615 40.542110 0.000000 0.000000 -22.320000 0.000000 0.000000 -15.500000 0.000000 0.000000 0.000000 8.860829 0.000000 -3.176186 6.202579 0.000000 0.000000 6.202579 0.000000 0.000000 0.000000 0.000000 0.000000 8.621539 -0.000000 -6.268370 6.035076 0.000000 0.000000 6.035076 0.000000 0.000000 0.000000 0.000000 0.000000 7.958032 -0.000000 -8.849969 5.570622 0.000000 0.000000 5.570622 0.000000 0.000000 0.000000 0.000000 0.000000 6.640872 0.000000 -12.474763 4.648609 0.000000 0.000000 4.648609 0.000000 0.000000 0.000000 0.000000 0.000000 0.000000 0.000000 0.000000 0.000000 0.000000 0.000000 -88.859314 -0.133066 6.609488 -66.725983 50.483044 -4.313206 -1.545481 -7.996055 50.416241 -4.361057 -26.589066 -14.879901 -7.353997 1.477447 41.368053 0.000000 0.000000 -18.000004 0.000000 0.000000 -12.499999 0.000000 0.000000 0.000000 -5.476604 0.000000 -8.329253 -3.833623 0.000000 0.000000 -3.833623 0.000000 0.000000 0.000000 0.000000 0.000000 -5.239258 0.000000 -11.531199 -3.667480 0.000000 0.000000 -3.667480 0.000000 0.000000 0.000000 0.000000 0.000000 -4.586533 -0.000000 -13.947233 -3.210572 0.000000 0.000000 -3.210572 0.000000 0.000000 0.000000 0.000000 0.000000 -3.146083 -0.000000 -16.393267 -2.202259 0.000000 0.000000 -2.202259 0.000000 0.000000 0.000000 0.000000 0.000000 0.000000 0.000000 0.000000 0.000000 0.000000 0.000000 2.700027 -17.975664 5.233959 -0.141323 -0.641919 12.418096 -5.517920 -19.852652 16.891529 -0.054081 -1.137408 -31.130367 0.000000 0.000000 0.000000 0.000000 0.000000 0.000000 0.000000 0.000000 0.000000 8.423173 3.030296 -1.704119 0.253576 0.931506 15.317422 -0.154702 -4.257219 17.819971 0.079853 0.214439 -29.690786 0.000000 0.000000 0.000000 0.000000 0.000000 0.000000 0.000000 0.000000 0.000000 
1.152016 87.239616 2.295027 -1.817321 -1.080965 -6.914739 2.245145 -0.570745 5.715910 4.867785 -1.438975 5.250240 -1.668424 0.419700 6.278343 -0.322357 -0.046024 1.275306 3.475178 7.018545 10.556279 -2.696654 5.651431 -6.464490 -1.435354 3.022838 -22.292273 0.000000 0.000000 0.000000 88.549942 0.208942 5.720117 69.161392 -50.717392 -4.433971 1.407870 15.591499 43.532436 4.291262 27.041016 -8.552310 9.165119 -1.701242 40.539684 0.000002 0.000045 -22.375874 0.000021 0.000039 -15.610762 0.000015 -0.000008 -0.000026 8.203944 0.111109 -2.801100 6.513472 -0.007642 -0.001864 6.447942 0.023664 0.029942 -0.000040 0.000000 -0.000034 8.560784 0.035777 -5.678801 6.372509 -0.006711 0.040420 6.249338 -0.001887 0.028309 0.000050 0.000035 -0.000007 8.546701 -0.030564 -8.380313 5.657998 0.044906 -0.103894 5.727267 0.012394 -0.071601 0.000004 -0.000433 0.000019 8.738841 -0.054030 -12.610876 5.345742 0.076782 -0.289419 5.248089 0.012971 -0.220472 -0.000473 -0.000002 -0.000019 0.000000 0.000000 0.000000 0.000000 0.000000 0.000000 -87.523605 -0.441439 5.279852 -65.801064 49.441441 -2.282713 -1.799052 -9.590839 49.916943 -3.673370 -23.522448 -16.407774 -7.422513 1.478558 41.391502 -0.000007 0.000021 -17.932697 -0.000049 -0.000052 -12.443336 -0.001384 0.000011 0.001390 -3.128187 0.060020 -9.930194 -4.499769 -0.002898 0.131959 -4.618340 0.030449 0.098939 0.000003 0.000853 0.000003 -3.685299 0.024957 -11.642887 -4.746250 -0.006773 0.025984 -4.418653 0.009544 0.025000 -0.000189 -0.000052 -0.000054 -4.057242 -0.015515 -12.372837 -4.415689 0.008864 -0.019997 -4.233818 -0.006065 0.010164 0.000158 0.000014 0.000008 -4.199896 -0.005066 -13.451245 -4.030545 0.041127 0.070821 -4.068091 -0.016893 0.064020 -0.000772 -0.000008 -0.000016 0.000000 0.000000 0.000000 0.000000 0.000000 0.000000 1.897501 -15.718561 7.328612 -0.072124 -0.538431 13.451905 -5.207087 -21.573622 17.608648 -0.296086 -1.390007 -30.038368 0.000000 0.000000 0.000000 0.000000 0.000000 0.000000 0.000000 0.000000 0.000000 8.071031 1.424280 -0.182077 0.301321 0.831437 15.760066 0.734189 -1.544058 18.495783 0.157060 0.658480 -30.136982 0.000000 0.000000 0.000000 0.000000 0.000000 0.000000 0.000000 0.000000 0.000000 
1.443513 87.259079 2.522371 -1.753378 -1.451155 -7.252108 2.134537 -0.564719 5.735116 4.824573 -1.441227 5.267340 -1.625094 0.397102 6.397887 -0.426983 -0.027522 1.156383 3.432955 6.864150 10.586186 -2.737801 5.466188 -6.578613 -1.363872 3.084294 -22.535135 0.000000 0.000000 0.000000 88.925896 0.182498 5.678604 68.579811 -49.601978 -4.084291 1.447432 16.097410 43.666370 4.186069 26.604712 -8.565588 9.132502 -1.693937 40.559376 0.000003 0.000045 -22.309242 0.000039 0.000027 -15.584099 0.000024 0.000006 -0.000040 8.189004 0.108147 -2.959084 6.526743 -0.001609 -0.016399 6.469900 0.028747 0.019079 -0.000020 0.000024 -0.000021 8.561407 0.033798 -5.784161 6.426194 -0.003910 0.033066 6.287817 0.000776 0.025228 0.000033 0.000020 -0.000020 8.578547 -0.028925 -8.505237 5.748254 0.038833 -0.096893 5.799288 0.008300 -0.064289 -0.000011 -0.000355 0.000005 8.840322 -0.044390 -12.700652 5.439550 0.059297 -0.259189 5.367081 0.000843 -0.190673 -0.000405 0.000008 -0.000018 0.000000 0.000000 0.000000 0.000000 0.000000 0.000000 -87.935837 -0.429466 5.250172 -65.733994 48.420834 -2.407397 -1.843811 -9.978225 50.251202 -3.138177 -23.492287 -16.480402 -7.448495 1.480620 41.384945 0.000019 0.000019 -17.942642 -0.000035 -0.000040 -12.463942 -0.001356 0.000024 0.001079 -3.013377 0.058444 -9.677921 -4.374981 -0.004045 0.119267 -4.488301 0.030009 0.081605 0.000017 0.000815 0.000004 -3.701290 0.024867 -11.528655 -4.678461 -0.006529 0.021159 -4.362004 0.009593 0.020287 -0.000148 -0.000045 -0.000078 -4.259164 -0.011596 -12.346219 -4.450197 0.007609 -0.016467 -4.255954 -0.006611 0.012396 -0.000231 0.000013 0.000006 -4.533879 0.013158 -13.544960 -4.147520 0.036066 0.076056 -4.181327 -0.022409 0.066170 -0.000801 0.000006 -0.000037 0.000000 0.000000 0.000000 0.000000 0.000000 0.000000 1.537086 -15.488570 7.816333 -0.079504 -0.568335 13.366689 -5.052896 -21.213373 17.616333 -0.333720 -1.397611 -30.102623 0.000000 0.000000 0.000000 0.000000 0.000000 0.000000 0.000000 0.000000 0.000000 7.829195 1.698823 0.765800 0.287139 0.817908 15.430483 0.874541 -1.414606 18.093466 0.133669 0.667653 -29.985706 0.000000 0.000000 0.000000 0.000000 0.000000 0.000000 0.000000 0.000000 0.000000 
1.733960 87.288330 2.757983 -1.667010 -1.823225 -7.563316 2.048037 -0.547178 5.747703 4.770931 -1.428277 5.201388 -1.617171 0.417423 6.580138 -0.564613 -0.011478 1.111100 3.341291 6.757299 10.521836 -2.763531 5.332798 -6.754160 -1.316427 3.103923 -22.765951 0.000000 0.000000 0.000000 89.269432 0.111004 5.611382 67.986725 -48.723366 -3.740753 1.529047 16.712193 43.885807 4.045668 26.255852 -8.676803 9.058745 -1.690382 40.588615 0.000005 0.000042 -22.147854 0.000037 0.000027 -15.472589 0.000023 0.000006 -0.000038 7.958210 0.102516 -3.147867 6.373761 -0.003957 -0.028284 6.319624 0.025445 0.008590 -0.000020 0.000023 -0.000021 8.348597 0.029614 -5.940981 6.309842 -0.004301 0.026633 6.172119 0.000820 0.021905 0.000032 0.000022 -0.000021 8.447512 -0.025514 -8.694770 5.689548 0.039462 -0.088104 5.718753 0.008807 -0.054790 -0.000011 -0.000412 0.000009 8.772560 -0.035534 -12.867768 5.396720 0.061186 -0.227452 5.343270 0.003380 -0.158124 -0.000350 0.000008 -0.000026 0.000000 0.000000 0.000000 0.000000 0.000000 0.000000 -88.294098 -0.355100 5.209701 -65.143799 47.505230 -1.979026 -1.927488 -10.458948 50.665913 -2.770844 -23.203495 -16.713369 -7.400903 1.478941 41.400612 0.000019 0.000018 -17.824530 -0.000027 -0.000041 -12.386435 -0.001429 0.000022 0.000900 -2.676114 0.051453 -9.445547 -4.122890 -0.010956 0.096061 -4.225865 0.022963 0.059582 0.000014 0.000825 0.000004 -3.463577 0.023234 -11.406980 -4.458456 -0.009074 0.012676 -4.166759 0.007886 0.012749 -0.000233 -0.000044 -0.000097 -4.195779 -0.006187 -12.355217 -4.344097 0.010605 -0.010278 -4.134284 -0.004227 0.016125 -0.000476 0.000012 0.000005 -4.654052 0.029105 -13.701685 -4.166762 0.042326 0.082166 -4.204456 -0.018022 0.071616 -0.000843 0.000005 -0.000037 0.000000 0.000000 0.000000 0.000000 0.000000 0.000000 1.166935 -15.263669 8.294649 -0.088010 -0.596769 13.306859 -4.831732 -20.923281 17.504841 -0.381155 -1.401735 -30.127996 0.000000 0.000000 0.000000 0.000000 0.000000 0.000000 0.000000 0.000000 0.000000 7.567760 1.935820 1.548370 0.277381 0.807082 15.294334 1.036582 -1.182581 17.711714 0.119185 0.673164 -29.848680 0.000000 0.000000 0.000000 0.000000 0.000000 0.000000 0.000000 0.000000 0.000000 
2.024095 87.319870 2.998157 -1.568282 -2.193651 -7.878025 1.977239 -0.526107 5.768827 4.681166 -1.396594 5.134783 -1.602594 0.425144 6.765718 -0.709184 -0.001774 1.128774 3.231792 6.645620 10.459369 -2.779992 5.227907 -6.921692 -1.273078 3.106176 -23.019676 0.000000 0.000000 0.000000 89.577393 0.018842 5.505293 67.462425 -47.775158 -3.503472 1.625360 17.309179 44.386127 3.834944 25.879122 -8.673285 9.014016 -1.686875 40.608913 0.000007 0.000039 -22.042717 0.000035 0.000028 -15.399883 0.000022 0.000006 -0.000037 7.715855 0.095957 -3.303658 6.244504 -0.003822 -0.050326 6.187585 0.024251 -0.010487 -0.000020 0.000022 -0.000020 8.129415 0.024553 -6.087456 6.202453 -0.004100 0.016631 6.071482 0.001422 0.015494 0.000031 0.000030 -0.000022 8.308774 -0.021032 -8.897895 5.623085 0.039530 -0.075673 5.634061 0.009160 -0.042797 -0.000011 -0.000568 0.000013 8.670294 -0.026216 -13.073133 5.343494 0.062058 -0.185878 5.303030 0.005047 -0.118864 -0.000285 0.000007 -0.000029 0.000000 0.000000 0.000000 0.000000 0.000000 0.000000 -88.630280 -0.262021 5.148737 -64.382149 46.413784 -1.369216 -2.002962 -11.089196 51.265854 -2.424971 -22.986677 -16.846500 -7.290420 1.465159 41.449242 0.000020 0.000017 -17.555628 -0.000021 -0.000041 -12.205929 -0.001559 0.000022 0.000801 -1.950929 0.043444 -9.094997 -3.723917 -0.017111 0.075898 -3.815928 0.016458 0.040773 0.000010 0.000844 0.000003 -2.849924 0.020994 -11.184627 -4.074428 -0.011500 0.005273 -3.804433 0.006487 0.005788 -0.000325 -0.000044 -0.000111 -3.784596 -0.001182 -12.339611 -4.053481 0.013253 -0.005940 -3.826638 -0.002233 0.018317 -0.000663 0.000012 0.000004 -4.499539 0.044118 -13.910622 -4.043379 0.046559 0.079892 -4.081347 -0.014469 0.071559 -0.000901 0.000005 -0.000036 0.000000 0.000000 0.000000 0.000000 0.000000 0.000000 0.789908 -15.015223 8.773727 -0.096546 -0.621743 13.258842 -4.587617 -20.616951 17.346273 -0.428558 -1.399379 -30.136675 0.000000 0.000000 0.000000 0.000000 0.000000 0.000000 0.000000 0.000000 0.000000 7.294473 2.130404 2.262483 0.269500 0.796144 15.227262 1.218217 -0.961969 17.377287 0.106227 0.674947 -29.728561 0.000000 0.000000 0.000000 0.000000 0.000000 0.000000 0.000000 0.000000 0.000000 
